<svg width="17" height="14" viewBox="0 0 17 14" fill="none" xmlns="http://www.w3.org/2000/svg">
<path d="M16 7L16.354 6.646L16.707 7L16.354 7.354L16 7ZM1 7.5C0.867392 7.5 0.740215 7.44732 0.646447 7.35355C0.552679 7.25978 0.5 7.1326 0.5 7C0.5 6.86739 0.552679 6.74021 0.646447 6.64644C0.740215 6.55267 0.867392 6.5 1 6.5V7.5ZM10.354 0.645996L16.354 6.646L15.646 7.354L9.646 1.354L10.354 0.645996ZM16.354 7.354L10.354 13.354L9.646 12.646L15.646 6.646L16.354 7.354ZM16 7.5H1V6.5H16V7.5Z" fill="#07474F"/>
</svg>
