<svg width="24" height="25" viewBox="0 0 24 25" fill="none" xmlns="http://www.w3.org/2000/svg">
<path d="M19.5 4.58594H16.5V3.08594C16.5 2.95333 16.4473 2.82615 16.3536 2.73238C16.2598 2.63862 16.1326 2.58594 16 2.58594C15.8674 2.58594 15.7402 2.63862 15.6464 2.73238C15.5527 2.82615 15.5 2.95333 15.5 3.08594V4.58594H8.5V3.08594C8.5 2.95333 8.44732 2.82615 8.35355 2.73238C8.25979 2.63862 8.13261 2.58594 8 2.58594C7.86739 2.58594 7.74021 2.63862 7.64645 2.73238C7.55268 2.82615 7.5 2.95333 7.5 3.08594V4.58594H4.5C3.8372 4.58673 3.20178 4.85038 2.73311 5.31905C2.26444 5.78772 2.00079 6.42314 2 7.08594V20.0859C2.00079 20.7487 2.26444 21.3842 2.73311 21.8528C3.20178 22.3215 3.8372 22.5851 4.5 22.5859H19.5C20.163 22.5859 20.7989 22.3225 21.2678 21.8537C21.7366 21.3849 22 20.749 22 20.0859V7.08594C22 6.4229 21.7366 5.78701 21.2678 5.31817C20.7989 4.84933 20.163 4.58594 19.5 4.58594ZM21 20.0859C21 20.4838 20.842 20.8653 20.5607 21.1466C20.2794 21.4279 19.8978 21.5859 19.5 21.5859H4.5C4.10218 21.5859 3.72064 21.4279 3.43934 21.1466C3.15804 20.8653 3 20.4838 3 20.0859V11.5859H21V20.0859ZM21 10.5859H3V7.08594C3 6.25794 3.67 5.58594 4.5 5.58594H7.5V7.08594C7.5 7.21855 7.55268 7.34572 7.64645 7.43949C7.74021 7.53326 7.86739 7.58594 8 7.58594C8.13261 7.58594 8.25979 7.53326 8.35355 7.43949C8.44732 7.34572 8.5 7.21855 8.5 7.08594V5.58594H15.5V7.08594C15.5 7.21855 15.5527 7.34572 15.6464 7.43949C15.7402 7.53326 15.8674 7.58594 16 7.58594C16.1326 7.58594 16.2598 7.53326 16.3536 7.43949C16.4473 7.34572 16.5 7.21855 16.5 7.08594V5.58594H19.5C19.8978 5.58594 20.2794 5.74397 20.5607 6.02528C20.842 6.30658 21 6.68811 21 7.08594V10.5859Z" fill="#07474F"/>
</svg>
