<svg width="175" height="123" viewBox="0 0 175 123" fill="none" xmlns="http://www.w3.org/2000/svg">
<path opacity="0.3" d="M159.463 11.1059C169.572 21.2548 175 32.6376 175 51.0893C175 83.5584 151.735 107.78 116.667 122.168C137.829 111.349 143.965 95.1433 146.349 81.3383C147.711 73.4487 137.778 65.7049 129.802 65.0046C112.096 63.4554 98.1394 49.7163 98.1394 32.6376C98.1394 24.0262 101.759 15.7676 108.201 9.67844C114.643 3.5893 123.381 0.168457 132.492 0.168457C143.023 0.168457 153.093 4.71413 159.463 11.1059ZM61.3138 11.1059C71.4232 21.2548 76.8508 32.6376 76.8508 51.0893C76.8508 83.5584 54.5131 107.78 19.4444 122.168C40.5912 111.357 46.3471 95.1668 48.4605 81.3684C49.6726 73.4543 39.6288 65.7049 31.6531 65.0046C13.947 63.4554 0 49.7163 0 32.6376C0 24.0262 3.61924 15.7676 10.0615 9.67844C16.5038 3.5893 25.2414 0.168457 34.3522 0.168457C44.8836 0.168457 54.9537 4.71413 61.3236 11.1059H61.3138Z" fill="#FBC25A"/>
</svg>
