<svg width="40" height="40" viewBox="0 0 40 40" fill="none" xmlns="http://www.w3.org/2000/svg">
<g clip-path="url(#clip0_1_494)">
<path d="M13.9344 1.31556C9.9378 2.70202 6.49112 5.33358 4.10064 8.82369C1.71016 12.3138 0.501892 16.4785 0.653301 20.7061C0.80471 24.9336 2.30782 29.0012 4.94185 32.3114C7.57587 35.6216 11.202 37.9998 15.2875 39.0968C18.5998 39.9515 22.0701 39.989 25.4 39.2062C28.4167 38.5286 31.2056 37.0792 33.4938 34.9999C35.8753 32.7698 37.6039 29.9327 38.4938 26.7937C39.461 23.3801 39.6332 19.7903 38.9969 16.2999H20.3969V24.0156H31.1688C30.9535 25.2461 30.4922 26.4207 29.8124 27.4688C29.1326 28.5169 28.2484 29.4171 27.2125 30.1156C25.8972 30.9857 24.4144 31.5711 22.8594 31.8343C21.2999 32.1243 19.7002 32.1243 18.1407 31.8343C16.56 31.5075 15.0647 30.8551 13.75 29.9187C11.638 28.4236 10.0522 26.2997 9.21879 23.8499C8.37134 21.3543 8.37134 18.6487 9.21879 16.1531C9.812 14.4037 10.7926 12.811 12.0875 11.4937C13.5694 9.95852 15.4455 8.86117 17.5099 8.32205C19.5744 7.78292 21.7474 7.82284 23.7907 8.43743C25.3868 8.92741 26.8464 9.78349 28.0532 10.9374C29.2678 9.7291 30.4803 8.51764 31.6907 7.30306C32.3157 6.64993 32.9969 6.02806 33.6125 5.35931C31.7706 3.64517 29.6084 2.31136 27.25 1.43431C22.9554 -0.125099 18.2562 -0.167006 13.9344 1.31556Z" fill="white"/>
<path d="M13.9344 1.3161C18.2559 -0.167472 22.955 -0.126667 27.25 1.43173C29.6088 2.31474 31.77 3.65497 33.6094 5.37548C32.9844 6.04423 32.325 6.66923 31.6875 7.31923C30.475 8.52964 29.2636 9.73589 28.0532 10.938C26.8464 9.78403 25.3868 8.92795 23.7907 8.43797C21.7481 7.82123 19.5751 7.779 17.5101 8.31592C15.4451 8.85284 13.5679 9.94817 12.0844 11.4817C10.7895 12.799 9.80888 14.3918 9.21567 16.1411L2.73755 11.1255C5.05632 6.52723 9.07114 3.00993 13.9344 1.3161Z" fill="#E33629"/>
<path d="M1.01872 16.0938C1.36691 14.3681 1.94498 12.697 2.73747 11.125L9.21559 16.1531C8.36814 18.6488 8.36814 21.3544 9.21559 23.85C7.05726 25.5167 4.89788 27.1917 2.73747 28.875C0.753562 24.926 0.148506 20.4266 1.01872 16.0938Z" fill="#F8BD00"/>
<path d="M20.3969 16.2969H38.9969C39.6331 19.7873 39.461 23.3771 38.4938 26.7906C37.6039 29.9296 35.8753 32.7667 33.4938 34.9969C31.4031 33.3656 29.3031 31.7469 27.2125 30.1156C28.249 29.4165 29.1337 28.5153 29.8135 27.466C30.4933 26.4168 30.9543 25.2411 31.1688 24.0094H20.3969C20.3938 21.4406 20.3969 18.8687 20.3969 16.2969Z" fill="#587DBD"/>
<path d="M2.73438 28.8746C4.89479 27.2079 7.05417 25.5329 9.2125 23.8496C10.0475 26.3002 11.6356 28.4243 13.75 29.9184C15.0688 30.8504 16.5673 31.4975 18.15 31.8184C19.7096 32.1083 21.3092 32.1083 22.8687 31.8184C24.4237 31.5551 25.9065 30.9697 27.2219 30.0996C29.3125 31.7309 31.4125 33.3496 33.5031 34.9809C31.2153 37.0613 28.4263 38.5117 25.4094 39.1902C22.0794 39.9731 18.6091 39.9355 15.2969 39.0809C12.6772 38.3814 10.2302 37.1483 8.10938 35.459C5.86457 33.6768 4.03111 31.4308 2.73438 28.8746Z" fill="#319F43"/>
</g>
<defs>
<clipPath id="clip0_1_494">
<rect width="40" height="40" fill="white"/>
</clipPath>
</defs>
</svg>
