<svg width="22" height="26" viewBox="0 0 22 26" fill="none" xmlns="http://www.w3.org/2000/svg">
<path d="M11.7466 24.76C11.529 24.9163 11.2679 25.0003 11 25.0003C10.732 25.0003 10.4709 24.9163 10.2533 24.76C3.81462 20.1707 -3.01872 10.7307 3.88928 3.90933C5.78574 2.0438 8.33973 0.998832 11 1C13.6666 1 16.2253 2.04667 18.1106 3.908C25.0186 10.7293 18.1853 20.168 11.7466 24.76Z" stroke="#07474F" stroke-width="1.5" stroke-linecap="round" stroke-linejoin="round"/>
<path d="M10.9999 13.0001C11.7072 13.0001 12.3854 12.7191 12.8855 12.219C13.3856 11.7189 13.6666 11.0407 13.6666 10.3334C13.6666 9.62617 13.3856 8.94789 12.8855 8.4478C12.3854 7.9477 11.7072 7.66675 10.9999 7.66675C10.2927 7.66675 9.6144 7.9477 9.1143 8.4478C8.6142 8.94789 8.33325 9.62617 8.33325 10.3334C8.33325 11.0407 8.6142 11.7189 9.1143 12.219C9.6144 12.7191 10.2927 13.0001 10.9999 13.0001Z" stroke="#07474F" stroke-width="1.5" stroke-linecap="round" stroke-linejoin="round"/>
</svg>
