<svg width="29" height="8" viewBox="0 0 29 8" fill="none" xmlns="http://www.w3.org/2000/svg">
<path d="M25.9999 4.71544V5.88877M15.3333 1.03988V3.50655L8.31995 3.04877C8.32439 3.03988 8.32884 3.03099 8.34217 3.01766C8.83995 2.4221 10.9511 0.235435 14.9333 0.595435C15.1599 0.617657 15.3333 0.813213 15.3333 1.03988Z" stroke="#07474F" stroke-width="0.5" stroke-linecap="round" stroke-linejoin="round"/>
<path d="M26.8888 2.30211V4.271C26.8888 4.51544 26.6639 4.71544 26.3888 4.71544H24.8888V4.52433C24.8888 4.29322 24.6688 4.09767 24.3888 4.08433L22.8888 3.99544V2.30211C22.8888 2.05767 23.1137 1.85767 23.3888 1.85767H26.3888C26.6639 1.85767 26.8888 2.05767 26.8888 2.30211Z" stroke="#07474F" stroke-width="0.53025" stroke-linecap="round" stroke-linejoin="round"/>
<path d="M7.5333 7.2221C7.5333 7.2221 6.55553 6.53765 5.47997 4.99988C5.20886 4.61765 4.9333 4.1821 4.66664 3.69321C4.62219 3.6221 4.58664 3.55099 4.54664 3.47543C4.38219 3.16432 4.63997 2.80432 5.00441 2.83099L5.27997 2.84877L8.31997 3.04877L15.3333 3.50654L22.8889 3.99543L24.2222 4.08432C24.4711 4.09765 24.6666 4.29321 24.6666 4.52432V5.89765" stroke="#07474F" stroke-width="0.5" stroke-linecap="round" stroke-linejoin="round"/>
<path d="M0.240845 5.89771C1.57418 5.89771 4.24084 7.23104 6.90751 7.23104C9.57418 7.23104 11.352 5.89771 14.0186 5.89771C16.6853 5.89771 18.9075 7.23104 21.1297 7.23104C23.352 7.23104 24.2408 5.89771 27.7964 5.89771" stroke="#07474F" stroke-width="0.5" stroke-linecap="round" stroke-linejoin="round"/>
</svg>
