<svg width="24" height="30" viewBox="0 0 24 30" fill="none" xmlns="http://www.w3.org/2000/svg">
<path d="M12.96 0.719975C13.2371 0.639018 13.5331 0.650238 13.8034 0.751947C14.0736 0.853656 14.3036 1.04036 14.4586 1.28397L23.792 15.9506C23.9203 16.1522 23.9921 16.3846 23.9998 16.6235C24.0075 16.8624 23.9509 17.0989 23.8359 17.3084C23.7209 17.5179 23.5516 17.6926 23.3459 17.8143C23.1402 17.9359 22.9056 18.0001 22.6666 18H13.3333C12.9797 18 12.6405 17.8595 12.3905 17.6095C12.1404 17.3594 12 17.0203 12 16.6666V1.99997C12 1.71148 12.0935 1.43077 12.2666 1.19997C12.4397 0.96918 12.683 0.800753 12.96 0.719975ZM0.253293 19.8866C0.376703 19.7156 0.538947 19.5762 0.726695 19.48C0.914444 19.3838 1.12234 19.3335 1.33329 19.3333H22.6666C22.8784 19.3332 23.0872 19.3835 23.2756 19.4801C23.4641 19.5767 23.6268 19.7168 23.7504 19.8889C23.8739 20.0609 23.9547 20.2599 23.986 20.4693C24.0174 20.6788 23.9984 20.8927 23.9306 21.0933C23.6546 21.9066 23.2506 22.6933 22.776 23.4066C22.056 24.4866 20.708 26 18.6666 26H5.33329C3.29329 26 1.94396 24.4866 1.22396 23.4066C0.740485 22.6883 0.35235 21.9103 0.0692934 21.092C0.00279815 20.8909 -0.0153156 20.6769 0.0164239 20.4675C0.0481634 20.258 0.128861 20.059 0.25196 19.8866H0.253293ZM8.20263 5.29331C8.35607 5.0478 8.58526 4.8589 8.85556 4.75516C9.12585 4.65143 9.42257 4.63849 9.70087 4.71831C9.97917 4.79812 10.2239 4.96635 10.3982 5.19758C10.5724 5.4288 10.6666 5.71045 10.6666 5.99997V16.6666C10.6666 17.0203 10.5261 17.3594 10.2761 17.6095C10.0261 17.8595 9.68691 18 9.33329 18H2.66663C2.42862 18 2.19495 17.9363 1.98988 17.8155C1.78481 17.6947 1.61581 17.5212 1.50043 17.313C1.38506 17.1048 1.3275 16.8696 1.33375 16.6316C1.34 16.3937 1.40982 16.1618 1.53596 15.96L8.20263 5.29331Z" fill="#07474F"/>
</svg>
