<svg width="78" height="15" viewBox="0 0 78 15" fill="none" xmlns="http://www.w3.org/2000/svg">
<path d="M5.3393 3.74066C6.07818 2.41518 6.44762 1.75244 6.99996 1.75244C7.5523 1.75244 7.92173 2.41518 8.66061 3.74066L8.85177 4.08358C9.06174 4.46024 9.16672 4.64857 9.33041 4.77283C9.4941 4.89709 9.69796 4.94322 10.1057 5.03547L10.4769 5.11946C11.9117 5.4441 12.6291 5.60642 12.7998 6.15528C12.9705 6.70415 12.4814 7.27607 11.5032 8.4199L11.2502 8.71582C10.9722 9.04086 10.8332 9.20338 10.7707 9.40444C10.7082 9.6055 10.7292 9.82234 10.7712 10.256L10.8095 10.6508C10.9574 12.177 11.0313 12.94 10.5845 13.2792C10.1376 13.6185 9.4659 13.3092 8.12248 12.6906L7.77493 12.5306C7.39317 12.3548 7.20229 12.2669 6.99996 12.2669C6.79763 12.2669 6.60675 12.3548 6.22499 12.5306L5.87744 12.6906C4.53402 13.3092 3.86231 13.6185 3.41546 13.2792C2.96861 12.94 3.04256 12.177 3.19044 10.6508L3.2287 10.256C3.27072 9.82234 3.29174 9.6055 3.22921 9.40444C3.16669 9.20338 3.02771 9.04086 2.74975 8.71582L2.49668 8.4199C1.51852 7.27607 1.02944 6.70415 1.20012 6.15528C1.3708 5.60642 2.08821 5.4441 3.52302 5.11946L3.89423 5.03547C4.30196 4.94322 4.50582 4.89709 4.66951 4.77283C4.8332 4.64857 4.93818 4.46024 5.14815 4.08358L5.3393 3.74066Z" fill="#FFC700"/>
<path d="M21.3393 3.74066C22.0782 2.41518 22.4476 1.75244 23 1.75244C23.5523 1.75244 23.9217 2.41518 24.6606 3.74066L24.8518 4.08358C25.0617 4.46024 25.1667 4.64857 25.3304 4.77283C25.4941 4.89709 25.698 4.94322 26.1057 5.03547L26.4769 5.11946C27.9117 5.4441 28.6291 5.60642 28.7998 6.15528C28.9705 6.70415 28.4814 7.27607 27.5032 8.4199L27.2502 8.71582C26.9722 9.04086 26.8332 9.20338 26.7707 9.40444C26.7082 9.6055 26.7292 9.82234 26.7712 10.256L26.8095 10.6508C26.9574 12.177 27.0313 12.94 26.5845 13.2792C26.1376 13.6185 25.4659 13.3092 24.1225 12.6906L23.7749 12.5306C23.3932 12.3548 23.2023 12.2669 23 12.2669C22.7976 12.2669 22.6067 12.3548 22.225 12.5306L21.8774 12.6906C20.534 13.3092 19.8623 13.6185 19.4155 13.2792C18.9686 12.94 19.0426 12.177 19.1904 10.6508L19.2287 10.256C19.2707 9.82234 19.2917 9.6055 19.2292 9.40444C19.1667 9.20338 19.0277 9.04086 18.7497 8.71582L18.4967 8.4199C17.5185 7.27607 17.0294 6.70415 17.2001 6.15528C17.3708 5.60642 18.0882 5.4441 19.523 5.11946L19.8942 5.03547C20.302 4.94322 20.5058 4.89709 20.6695 4.77283C20.8332 4.64857 20.9382 4.46024 21.1481 4.08358L21.3393 3.74066Z" fill="#FFC700"/>
<g clip-path="url(#clip0_1_298)">
<path d="M37.3393 3.74066C38.0782 2.41518 38.4476 1.75244 39 1.75244C39.5523 1.75244 39.9217 2.41518 40.6606 3.74066L40.8518 4.08358C41.0617 4.46024 41.1667 4.64857 41.3304 4.77283C41.4941 4.89709 41.698 4.94322 42.1057 5.03547L42.4769 5.11946C43.9117 5.4441 44.6291 5.60642 44.7998 6.15528C44.9705 6.70415 44.4814 7.27607 43.5032 8.4199L43.2502 8.71582C42.9722 9.04086 42.8332 9.20338 42.7707 9.40444C42.7082 9.6055 42.7292 9.82234 42.7712 10.256L42.8095 10.6508C42.9574 12.177 43.0313 12.94 42.5845 13.2792C42.1376 13.6185 41.4659 13.3092 40.1225 12.6906L39.7749 12.5306C39.3932 12.3548 39.2023 12.2669 39 12.2669C38.7976 12.2669 38.6067 12.3548 38.225 12.5306L37.8774 12.6906C36.534 13.3092 35.8623 13.6185 35.4155 13.2792C34.9686 12.94 35.0426 12.177 35.1904 10.6508L35.2287 10.256C35.2707 9.82234 35.2917 9.6055 35.2292 9.40444C35.1667 9.20338 35.0277 9.04086 34.7497 8.71582L34.4967 8.4199C33.5185 7.27607 33.0294 6.70415 33.2001 6.15528C33.3708 5.60642 34.0882 5.4441 35.523 5.11946L35.8942 5.03547C36.302 4.94322 36.5058 4.89709 36.6695 4.77283C36.8332 4.64857 36.9382 4.46024 37.1481 4.08358L37.3393 3.74066Z" fill="#FFC700"/>
<g clip-path="url(#clip1_1_298)">
<path d="M37.3393 3.74066C38.0782 2.41518 38.4476 1.75244 39 1.75244C39.5523 1.75244 39.9217 2.41518 40.6606 3.74066L40.8518 4.08358C41.0617 4.46024 41.1667 4.64857 41.3304 4.77283C41.4941 4.89709 41.698 4.94322 42.1057 5.03547L42.4769 5.11946C43.9117 5.4441 44.6291 5.60642 44.7998 6.15528C44.9705 6.70415 44.4814 7.27607 43.5032 8.4199L43.2502 8.71582C42.9722 9.04086 42.8332 9.20338 42.7707 9.40444C42.7082 9.6055 42.7292 9.82234 42.7712 10.256L42.8095 10.6508C42.9574 12.177 43.0313 12.94 42.5845 13.2792C42.1376 13.6185 41.4659 13.3092 40.1225 12.6906L39.7749 12.5306C39.3932 12.3548 39.2023 12.2669 39 12.2669C38.7976 12.2669 38.6067 12.3548 38.225 12.5306L37.8774 12.6906C36.534 13.3092 35.8623 13.6185 35.4155 13.2792C34.9686 12.94 35.0426 12.177 35.1904 10.6508L35.2287 10.256C35.2707 9.82234 35.2917 9.6055 35.2292 9.40444C35.1667 9.20338 35.0277 9.04086 34.7497 8.71582L34.4967 8.4199C33.5185 7.27607 33.0294 6.70415 33.2001 6.15528C33.3708 5.60642 34.0882 5.4441 35.523 5.11946L35.8942 5.03547C36.302 4.94322 36.5058 4.89709 36.6695 4.77283C36.8332 4.64857 36.9382 4.46024 37.1481 4.08358L37.3393 3.74066Z" fill="#FFC700"/>
<path d="M37.3393 3.74066C38.0782 2.41518 38.4476 1.75244 39 1.75244C39.5523 1.75244 39.9217 2.41518 40.6606 3.74066L40.8518 4.08358C41.0617 4.46024 41.1667 4.64857 41.3304 4.77283C41.4941 4.89709 41.698 4.94322 42.1057 5.03547L42.4769 5.11946C43.9117 5.4441 44.6291 5.60642 44.7998 6.15528C44.9705 6.70415 44.4814 7.27607 43.5032 8.4199L43.2502 8.71582C42.9722 9.04086 42.8332 9.20338 42.7707 9.40444C42.7082 9.6055 42.7292 9.82234 42.7712 10.256L42.8095 10.6508C42.9574 12.177 43.0313 12.94 42.5845 13.2792C42.1376 13.6185 41.4659 13.3092 40.1225 12.6906L39.7749 12.5306C39.3932 12.3548 39.2023 12.2669 39 12.2669C38.7976 12.2669 38.6067 12.3548 38.225 12.5306L37.8774 12.6906C36.534 13.3092 35.8623 13.6185 35.4155 13.2792C34.9686 12.94 35.0426 12.177 35.1904 10.6508L35.2287 10.256C35.2707 9.82234 35.2917 9.6055 35.2292 9.40444C35.1667 9.20338 35.0277 9.04086 34.7497 8.71582L34.4967 8.4199C33.5185 7.27607 33.0294 6.70415 33.2001 6.15528C33.3708 5.60642 34.0882 5.4441 35.523 5.11946L35.8942 5.03547C36.302 4.94322 36.5058 4.89709 36.6695 4.77283C36.8332 4.64857 36.9382 4.46024 37.1481 4.08358L37.3393 3.74066Z" fill="#FFC700"/>
</g>
</g>
<g clip-path="url(#clip2_1_298)">
<path d="M53.3393 3.74066C54.0782 2.41518 54.4476 1.75244 55 1.75244C55.5523 1.75244 55.9217 2.41518 56.6606 3.74066L56.8518 4.08358C57.0617 4.46024 57.1667 4.64857 57.3304 4.77283C57.4941 4.89709 57.698 4.94322 58.1057 5.03547L58.4769 5.11946C59.9117 5.4441 60.6291 5.60642 60.7998 6.15528C60.9705 6.70415 60.4814 7.27607 59.5032 8.4199L59.2502 8.71582C58.9722 9.04086 58.8332 9.20338 58.7707 9.40444C58.7082 9.6055 58.7292 9.82234 58.7712 10.256L58.8095 10.6508C58.9574 12.177 59.0313 12.94 58.5845 13.2792C58.1376 13.6185 57.4659 13.3092 56.1225 12.6906L55.7749 12.5306C55.3932 12.3548 55.2023 12.2669 55 12.2669C54.7976 12.2669 54.6067 12.3548 54.225 12.5306L53.8774 12.6906C52.534 13.3092 51.8623 13.6185 51.4155 13.2792C50.9686 12.94 51.0426 12.177 51.1904 10.6508L51.2287 10.256C51.2707 9.82234 51.2917 9.6055 51.2292 9.40444C51.1667 9.20338 51.0277 9.04086 50.7497 8.71582L50.4967 8.4199C49.5185 7.27607 49.0294 6.70415 49.2001 6.15528C49.3708 5.60642 50.0882 5.4441 51.523 5.11946L51.8942 5.03547C52.302 4.94322 52.5058 4.89709 52.6695 4.77283C52.8332 4.64857 52.9382 4.46024 53.1481 4.08358L53.3393 3.74066Z" fill="#FFC700"/>
<g clip-path="url(#clip3_1_298)">
<path d="M53.3393 3.74066C54.0782 2.41518 54.4476 1.75244 55 1.75244C55.5523 1.75244 55.9217 2.41518 56.6606 3.74066L56.8518 4.08358C57.0617 4.46024 57.1667 4.64857 57.3304 4.77283C57.4941 4.89709 57.698 4.94322 58.1057 5.03547L58.4769 5.11946C59.9117 5.4441 60.6291 5.60642 60.7998 6.15528C60.9705 6.70415 60.4814 7.27607 59.5032 8.4199L59.2502 8.71582C58.9722 9.04086 58.8332 9.20338 58.7707 9.40444C58.7082 9.6055 58.7292 9.82234 58.7712 10.256L58.8095 10.6508C58.9574 12.177 59.0313 12.94 58.5845 13.2792C58.1376 13.6185 57.4659 13.3092 56.1225 12.6906L55.7749 12.5306C55.3932 12.3548 55.2023 12.2669 55 12.2669C54.7976 12.2669 54.6067 12.3548 54.225 12.5306L53.8774 12.6906C52.534 13.3092 51.8623 13.6185 51.4155 13.2792C50.9686 12.94 51.0426 12.177 51.1904 10.6508L51.2287 10.256C51.2707 9.82234 51.2917 9.6055 51.2292 9.40444C51.1667 9.20338 51.0277 9.04086 50.7497 8.71582L50.4967 8.4199C49.5185 7.27607 49.0294 6.70415 49.2001 6.15528C49.3708 5.60642 50.0882 5.4441 51.523 5.11946L51.8942 5.03547C52.302 4.94322 52.5058 4.89709 52.6695 4.77283C52.8332 4.64857 52.9382 4.46024 53.1481 4.08358L53.3393 3.74066Z" fill="#FFC700"/>
<path d="M53.3393 3.74066C54.0782 2.41518 54.4476 1.75244 55 1.75244C55.5523 1.75244 55.9217 2.41518 56.6606 3.74066L56.8518 4.08358C57.0617 4.46024 57.1667 4.64857 57.3304 4.77283C57.4941 4.89709 57.698 4.94322 58.1057 5.03547L58.4769 5.11946C59.9117 5.4441 60.6291 5.60642 60.7998 6.15528C60.9705 6.70415 60.4814 7.27607 59.5032 8.4199L59.2502 8.71582C58.9722 9.04086 58.8332 9.20338 58.7707 9.40444C58.7082 9.6055 58.7292 9.82234 58.7712 10.256L58.8095 10.6508C58.9574 12.177 59.0313 12.94 58.5845 13.2792C58.1376 13.6185 57.4659 13.3092 56.1225 12.6906L55.7749 12.5306C55.3932 12.3548 55.2023 12.2669 55 12.2669C54.7976 12.2669 54.6067 12.3548 54.225 12.5306L53.8774 12.6906C52.534 13.3092 51.8623 13.6185 51.4155 13.2792C50.9686 12.94 51.0426 12.177 51.1904 10.6508L51.2287 10.256C51.2707 9.82234 51.2917 9.6055 51.2292 9.40444C51.1667 9.20338 51.0277 9.04086 50.7497 8.71582L50.4967 8.4199C49.5185 7.27607 49.0294 6.70415 49.2001 6.15528C49.3708 5.60642 50.0882 5.4441 51.523 5.11946L51.8942 5.03547C52.302 4.94322 52.5058 4.89709 52.6695 4.77283C52.8332 4.64857 52.9382 4.46024 53.1481 4.08358L53.3393 3.74066Z" fill="#FFC700"/>
</g>
</g>
<g clip-path="url(#clip4_1_298)">
<path d="M69.3393 3.74066C70.0782 2.41518 70.4476 1.75244 71 1.75244C71.5523 1.75244 71.9217 2.41518 72.6606 3.74066L72.8518 4.08358C73.0617 4.46024 73.1667 4.64857 73.3304 4.77283C73.4941 4.89709 73.698 4.94322 74.1057 5.03547L74.4769 5.11946C75.9117 5.4441 76.6291 5.60642 76.7998 6.15528C76.9705 6.70415 76.4814 7.27607 75.5032 8.4199L75.2502 8.71582C74.9722 9.04086 74.8332 9.20338 74.7707 9.40444C74.7082 9.6055 74.7292 9.82234 74.7712 10.256L74.8095 10.6508C74.9574 12.177 75.0313 12.94 74.5845 13.2792C74.1376 13.6185 73.4659 13.3092 72.1225 12.6906L71.7749 12.5306C71.3932 12.3548 71.2023 12.2669 71 12.2669C70.7976 12.2669 70.6067 12.3548 70.225 12.5306L69.8774 12.6906C68.534 13.3092 67.8623 13.6185 67.4155 13.2792C66.9686 12.94 67.0426 12.177 67.1904 10.6508L67.2287 10.256C67.2707 9.82234 67.2917 9.6055 67.2292 9.40444C67.1667 9.20338 67.0277 9.04086 66.7497 8.71582L66.4967 8.4199C65.5185 7.27607 65.0294 6.70415 65.2001 6.15528C65.3708 5.60642 66.0882 5.4441 67.523 5.11946L67.8942 5.03547C68.302 4.94322 68.5058 4.89709 68.6695 4.77283C68.8332 4.64857 68.9382 4.46024 69.1481 4.08358L69.3393 3.74066Z" fill="#FFC700"/>
<g clip-path="url(#clip5_1_298)">
<path d="M69.3393 3.74066C70.0782 2.41518 70.4476 1.75244 71 1.75244C71.5523 1.75244 71.9217 2.41518 72.6606 3.74066L72.8518 4.08358C73.0617 4.46024 73.1667 4.64857 73.3304 4.77283C73.4941 4.89709 73.698 4.94322 74.1057 5.03547L74.4769 5.11946C75.9117 5.4441 76.6291 5.60642 76.7998 6.15528C76.9705 6.70415 76.4814 7.27607 75.5032 8.4199L75.2502 8.71582C74.9722 9.04086 74.8332 9.20338 74.7707 9.40444C74.7082 9.6055 74.7292 9.82234 74.7712 10.256L74.8095 10.6508C74.9574 12.177 75.0313 12.94 74.5845 13.2792C74.1376 13.6185 73.4659 13.3092 72.1225 12.6906L71.7749 12.5306C71.3932 12.3548 71.2023 12.2669 71 12.2669C70.7976 12.2669 70.6067 12.3548 70.225 12.5306L69.8774 12.6906C68.534 13.3092 67.8623 13.6185 67.4155 13.2792C66.9686 12.94 67.0426 12.177 67.1904 10.6508L67.2287 10.256C67.2707 9.82234 67.2917 9.6055 67.2292 9.40444C67.1667 9.20338 67.0277 9.04086 66.7497 8.71582L66.4967 8.4199C65.5185 7.27607 65.0294 6.70415 65.2001 6.15528C65.3708 5.60642 66.0882 5.4441 67.523 5.11946L67.8942 5.03547C68.302 4.94322 68.5058 4.89709 68.6695 4.77283C68.8332 4.64857 68.9382 4.46024 69.1481 4.08358L69.3393 3.74066Z" fill="#FFC700"/>
<path d="M69.3393 3.74066C70.0782 2.41518 70.4476 1.75244 71 1.75244C71.5523 1.75244 71.9217 2.41518 72.6606 3.74066L72.8518 4.08358C73.0617 4.46024 73.1667 4.64857 73.3304 4.77283C73.4941 4.89709 73.698 4.94322 74.1057 5.03547L74.4769 5.11946C75.9117 5.4441 76.6291 5.60642 76.7998 6.15528C76.9705 6.70415 76.4814 7.27607 75.5032 8.4199L75.2502 8.71582C74.9722 9.04086 74.8332 9.20338 74.7707 9.40444C74.7082 9.6055 74.7292 9.82234 74.7712 10.256L74.8095 10.6508C74.9574 12.177 75.0313 12.94 74.5845 13.2792C74.1376 13.6185 73.4659 13.3092 72.1225 12.6906L71.7749 12.5306C71.3932 12.3548 71.2023 12.2669 71 12.2669C70.7976 12.2669 70.6067 12.3548 70.225 12.5306L69.8774 12.6906C68.534 13.3092 67.8623 13.6185 67.4155 13.2792C66.9686 12.94 67.0426 12.177 67.1904 10.6508L67.2287 10.256C67.2707 9.82234 67.2917 9.6055 67.2292 9.40444C67.1667 9.20338 67.0277 9.04086 66.7497 8.71582L66.4967 8.4199C65.5185 7.27607 65.0294 6.70415 65.2001 6.15528C65.3708 5.60642 66.0882 5.4441 67.523 5.11946L67.8942 5.03547C68.302 4.94322 68.5058 4.89709 68.6695 4.77283C68.8332 4.64857 68.9382 4.46024 69.1481 4.08358L69.3393 3.74066Z" fill="#FFC700"/>
</g>
</g>
<defs>
<clipPath id="clip0_1_298">
<rect x="32" y="0.585938" width="14" height="14" rx="5" fill="white"/>
</clipPath>
<clipPath id="clip1_1_298">
<rect x="32" y="0.585938" width="14" height="14" rx="5" fill="white"/>
</clipPath>
<clipPath id="clip2_1_298">
<rect x="48" y="0.585938" width="14" height="14" rx="5" fill="white"/>
</clipPath>
<clipPath id="clip3_1_298">
<rect x="48" y="0.585938" width="14" height="14" rx="5" fill="white"/>
</clipPath>
<clipPath id="clip4_1_298">
<rect x="64" y="0.585938" width="14" height="14" rx="5" fill="white"/>
</clipPath>
<clipPath id="clip5_1_298">
<rect x="64" y="0.585938" width="14" height="14" rx="5" fill="white"/>
</clipPath>
</defs>
</svg>
