<svg width="28" height="28" viewBox="0 0 28 28" fill="none" xmlns="http://www.w3.org/2000/svg">
<path d="M24 3.33341H20V1.33341C20 1.1566 19.9297 0.987035 19.8047 0.86201C19.6797 0.736986 19.5101 0.666748 19.3333 0.666748C19.1565 0.666748 18.9869 0.736986 18.8619 0.86201C18.7369 0.987035 18.6666 1.1566 18.6666 1.33341V3.33341H9.33329V1.33341C9.33329 1.1566 9.26305 0.987035 9.13803 0.86201C9.01301 0.736986 8.84344 0.666748 8.66663 0.666748C8.48981 0.666748 8.32025 0.736986 8.19522 0.86201C8.0702 0.987035 7.99996 1.1566 7.99996 1.33341V3.33341H3.99996C3.11623 3.33447 2.269 3.686 1.64411 4.31089C1.01921 4.93579 0.667685 5.78302 0.666626 6.66675V24.0001C0.667685 24.8838 1.01921 25.731 1.64411 26.3559C2.269 26.9808 3.11623 27.3324 3.99996 27.3334H24C24.884 27.3334 25.7319 26.9822 26.357 26.3571C26.9821 25.732 27.3333 24.8841 27.3333 24.0001V6.66675C27.3333 5.78269 26.9821 4.93485 26.357 4.30973C25.7319 3.6846 24.884 3.33341 24 3.33341ZM26 24.0001C26 24.5305 25.7892 25.0392 25.4142 25.4143C25.0391 25.7894 24.5304 26.0001 24 26.0001H3.99996C3.46953 26.0001 2.96082 25.7894 2.58575 25.4143C2.21067 25.0392 1.99996 24.5305 1.99996 24.0001V12.6667H26V24.0001ZM26 11.3334H1.99996V6.66675C1.99996 5.56275 2.89329 4.66675 3.99996 4.66675H7.99996V6.66675C7.99996 6.84356 8.0702 7.01313 8.19522 7.13815C8.32025 7.26318 8.48981 7.33341 8.66663 7.33341C8.84344 7.33341 9.01301 7.26318 9.13803 7.13815C9.26305 7.01313 9.33329 6.84356 9.33329 6.66675V4.66675H18.6666V6.66675C18.6666 6.84356 18.7369 7.01313 18.8619 7.13815C18.9869 7.26318 19.1565 7.33341 19.3333 7.33341C19.5101 7.33341 19.6797 7.26318 19.8047 7.13815C19.9297 7.01313 20 6.84356 20 6.66675V4.66675H24C24.5304 4.66675 25.0391 4.87746 25.4142 5.25253C25.7892 5.62761 26 6.13631 26 6.66675V11.3334Z" fill="#07474F"/>
</svg>
