<svg width="40" height="40" viewBox="0 0 40 40" fill="none" xmlns="http://www.w3.org/2000/svg">
<path d="M40 4.87072C38.5022 5.6836 36.9134 6.21711 35.2866 6.45349C36.9811 5.20948 38.2822 3.23952 38.8948 0.892346C37.284 2.06317 35.5216 2.88813 33.6838 3.33158C32.1867 1.37809 30.0541 0.157227 27.6936 0.157227C23.1614 0.157227 19.4869 4.6579 19.4869 10.2089C19.4869 10.9968 19.5595 11.7639 19.6994 12.4998C12.8791 12.0805 6.83219 8.07876 2.78453 1.99723C2.07828 3.48182 1.67359 5.20871 1.67359 7.05062C1.67359 10.5381 3.1225 13.6146 5.32438 15.4173C4.02116 15.3674 2.74661 14.9363 1.60719 14.1599C1.60677 14.202 1.60661 14.2442 1.60672 14.2864C1.60672 19.1567 4.43547 23.2194 8.18953 24.1429C6.98107 24.5454 5.71349 24.6043 4.48359 24.3151C5.52781 28.3086 8.55859 31.2146 12.1495 31.296C9.34094 33.9919 5.80234 35.5989 1.95766 35.5989C1.29516 35.5989 0.642031 35.5513 0 35.4585C3.63172 38.3105 7.94531 39.9746 12.5797 39.9746C27.6745 39.9746 35.9287 24.6577 35.9287 11.3746C35.9287 10.9387 35.9208 10.5052 35.905 10.0742C37.5115 8.65139 38.8982 6.88937 40 4.87072Z" fill="#55ACEE"/>
</svg>
